<svg width="24" height="24" viewBox="0 0 24 24" fill="none" xmlns="http://www.w3.org/2000/svg">
<path fill-rule="evenodd" clip-rule="evenodd" d="M16.5139 21.5H8.16604C5.09968 21.5 2.74727 20.3925 3.41547 15.9348L4.1935 9.89363C4.6054 7.66937 6.02416 6.81812 7.26901 6.81812H17.4475C18.7107 6.81812 20.047 7.73345 20.523 9.89363L21.3011 15.9348C21.8686 19.8891 19.5802 21.5 16.5139 21.5Z" stroke="#130F26" stroke-width="1.5" stroke-linecap="round" stroke-linejoin="round"/>
<path d="M16.6512 6.59842C16.6512 4.21235 14.7169 2.27805 12.3309 2.27805V2.27805C11.1819 2.27319 10.0782 2.72622 9.26406 3.53697C8.44987 4.34772 7.99218 5.44941 7.99219 6.59842H7.99219" stroke="#130F26" stroke-width="1.5" stroke-linecap="round" stroke-linejoin="round"/>
<path d="M15.2965 11.1018H15.2507" stroke="#130F26" stroke-width="1.5" stroke-linecap="round" stroke-linejoin="round"/>
<path d="M9.4659 11.1018H9.42013" stroke="#130F26" stroke-width="1.5" stroke-linecap="round" stroke-linejoin="round"/>
</svg>
