<svg width="24" height="24" viewBox="0 0 24 24" fill="none" xmlns="http://www.w3.org/2000/svg">
<path fill-rule="evenodd" clip-rule="evenodd" d="M15.04 4.05132C16.05 4.45332 16.359 5.85332 16.772 6.30332C17.185 6.75332 17.776 6.90632 18.103 6.90632C19.841 6.90632 21.25 8.31532 21.25 10.0523V15.8473C21.25 18.1773 19.36 20.0673 17.03 20.0673H6.97C4.639 20.0673 2.75 18.1773 2.75 15.8473V10.0523C2.75 8.31532 4.159 6.90632 5.897 6.90632C6.223 6.90632 6.814 6.75332 7.228 6.30332C7.641 5.85332 7.949 4.45332 8.959 4.05132C9.97 3.64932 14.03 3.64932 15.04 4.05132Z" stroke="#130F26" stroke-width="1.5" stroke-linecap="round" stroke-linejoin="round"/>
<path d="M17.4955 9.5H17.5045" stroke="#130F26" stroke-width="2" stroke-linecap="round" stroke-linejoin="round"/>
<path fill-rule="evenodd" clip-rule="evenodd" d="M15.1788 13.128C15.1788 11.372 13.7558 9.94904 11.9998 9.94904C10.2438 9.94904 8.8208 11.372 8.8208 13.128C8.8208 14.884 10.2438 16.307 11.9998 16.307C13.7558 16.307 15.1788 14.884 15.1788 13.128Z" stroke="#130F26" stroke-width="1.5" stroke-linecap="round" stroke-linejoin="round"/>
</svg>
