<svg width="24" height="24" viewBox="0 0 24 24" fill="none" xmlns="http://www.w3.org/2000/svg">
<path d="M9.76045 14.3668C9.18545 13.7928 8.83545 13.0128 8.83545 12.1378C8.83545 10.3848 10.2474 8.9718 11.9994 8.9718C12.8664 8.9718 13.6644 9.3228 14.2294 9.8968" stroke="#130F26" stroke-width="1.5" stroke-linecap="round" stroke-linejoin="round"/>
<path d="M15.1049 12.6989C14.8729 13.9889 13.8569 15.0069 12.5679 15.2409" stroke="#130F26" stroke-width="1.5" stroke-linecap="round" stroke-linejoin="round"/>
<path d="M6.65451 17.4723C5.06751 16.2263 3.72351 14.4063 2.74951 12.1373C3.73351 9.85829 5.08651 8.02829 6.68351 6.77229C8.27051 5.51629 10.1015 4.83429 11.9995 4.83429C13.9085 4.83429 15.7385 5.52629 17.3355 6.79129" stroke="#130F26" stroke-width="1.5" stroke-linecap="round" stroke-linejoin="round"/>
<path d="M19.4473 8.99078C20.1353 9.90478 20.7403 10.9598 21.2493 12.1368C19.2823 16.6938 15.8063 19.4388 11.9993 19.4388C11.1363 19.4388 10.2853 19.2988 9.46729 19.0258" stroke="#130F26" stroke-width="1.5" stroke-linecap="round" stroke-linejoin="round"/>
<path d="M19.8868 4.24957L4.11279 20.0236" stroke="#130F26" stroke-width="1.5" stroke-linecap="round" stroke-linejoin="round"/>
</svg>
