<svg width="24" height="24" viewBox="0 0 24 24" fill="none" xmlns="http://www.w3.org/2000/svg">
<path fill-rule="evenodd" clip-rule="evenodd" d="M20.8064 7.62355L20.184 6.54346C19.6574 5.62954 18.4905 5.31426 17.5753 5.83866V5.83866C17.1397 6.09528 16.6198 6.16809 16.1305 6.04103C15.6411 5.91396 15.2224 5.59746 14.9666 5.16131C14.8021 4.88409 14.7137 4.56833 14.7103 4.24598V4.24598C14.7251 3.72916 14.5302 3.22834 14.1698 2.85761C13.8094 2.48688 13.3143 2.2778 12.7973 2.27802H11.5433C11.0367 2.27801 10.5511 2.47985 10.1938 2.83888C9.83644 3.19791 9.63693 3.68453 9.63937 4.19106V4.19106C9.62435 5.23686 8.77224 6.07675 7.72632 6.07664C7.40397 6.07329 7.08821 5.98488 6.81099 5.82035V5.82035C5.89582 5.29595 4.72887 5.61123 4.20229 6.52516L3.5341 7.62355C3.00817 8.53633 3.31916 9.70255 4.22975 10.2322V10.2322C4.82166 10.574 5.18629 11.2055 5.18629 11.889C5.18629 12.5725 4.82166 13.204 4.22975 13.5457V13.5457C3.32031 14.0719 3.00898 15.2353 3.5341 16.1453V16.1453L4.16568 17.2345C4.4124 17.6797 4.82636 18.0082 5.31595 18.1474C5.80554 18.2865 6.3304 18.2248 6.77438 17.976V17.976C7.21084 17.7213 7.73094 17.6515 8.2191 17.7821C8.70725 17.9128 9.12299 18.233 9.37392 18.6716C9.53845 18.9488 9.62686 19.2646 9.63021 19.5869V19.5869C9.63021 20.6435 10.4867 21.5 11.5433 21.5H12.7973C13.8502 21.5 14.7053 20.6491 14.7103 19.5961V19.5961C14.7079 19.088 14.9086 18.6 15.2679 18.2407C15.6272 17.8814 16.1152 17.6806 16.6233 17.6831C16.9449 17.6917 17.2594 17.7797 17.5387 17.9393V17.9393C18.4515 18.4653 19.6177 18.1543 20.1474 17.2437V17.2437L20.8064 16.1453C21.0615 15.7074 21.1315 15.1859 21.001 14.6963C20.8704 14.2067 20.55 13.7893 20.1108 13.5366V13.5366C19.6715 13.2839 19.3511 12.8665 19.2206 12.3769C19.09 11.8872 19.16 11.3658 19.4151 10.9279C19.581 10.6383 19.8211 10.3981 20.1108 10.2322V10.2322C21.0159 9.70283 21.3262 8.54343 20.8064 7.63271V7.63271V7.62355Z" stroke="#130F26" stroke-width="1.5" stroke-linecap="round" stroke-linejoin="round"/>
<circle cx="12.1747" cy="11.889" r="2.63616" stroke="#130F26" stroke-width="1.5" stroke-linecap="round" stroke-linejoin="round"/>
</svg>
