<svg width="24" height="24" viewBox="0 0 24 24" fill="none" xmlns="http://www.w3.org/2000/svg">
<path fill-rule="evenodd" clip-rule="evenodd" d="M17.857 20.4171C19.73 20.4171 21.249 18.8991 21.25 17.0261V17.0241V14.3241C20.013 14.3241 19.011 13.3221 19.01 12.0851C19.01 10.8491 20.012 9.84612 21.249 9.84612H21.25V7.14612C21.252 5.27212 19.735 3.75212 17.862 3.75012H17.856H6.144C4.27 3.75012 2.751 5.26812 2.75 7.14212V7.14312V9.93312C3.944 9.89112 4.945 10.8251 4.987 12.0191C4.988 12.0411 4.989 12.0631 4.989 12.0851C4.99 13.3201 3.991 14.3221 2.756 14.3241H2.75V17.0241C2.749 18.8971 4.268 20.4171 6.141 20.4171H6.142H17.857Z" stroke="#130F26" stroke-width="1.5" stroke-linecap="round" stroke-linejoin="round"/>
<path fill-rule="evenodd" clip-rule="evenodd" d="M12.3711 9.06309L12.9871 10.3101C13.0471 10.4321 13.1631 10.5171 13.2981 10.5371L14.6751 10.7381C15.0161 10.7881 15.1511 11.2061 14.9051 11.4451L13.9091 12.4151C13.8111 12.5101 13.7671 12.6471 13.7891 12.7821L14.0241 14.1521C14.0821 14.4911 13.7271 14.7491 13.4231 14.5891L12.1921 13.9421C12.0711 13.8781 11.9271 13.8781 11.8061 13.9421L10.5761 14.5891C10.2711 14.7491 9.91609 14.4911 9.97409 14.1521L10.2091 12.7821C10.2321 12.6471 10.1871 12.5101 10.0891 12.4151L9.09409 11.4451C8.84809 11.2061 8.98309 10.7881 9.32309 10.7381L10.7001 10.5371C10.8351 10.5171 10.9521 10.4321 11.0121 10.3101L11.6271 9.06309C11.7791 8.75509 12.2191 8.75509 12.3711 9.06309Z" stroke="#130F26" stroke-width="1.5" stroke-linecap="round" stroke-linejoin="round"/>
</svg>
